<?xml version="1.0" encoding="UTF-8"?>
<svg version="1.1" xmlns="http://www.w3.org/2000/svg" width="256" height="256">
<path d="M0 0 C6.27 0 12.54 0 19 0 C19.02290896 5.10869811 19.04283601 10.21721926 19.05493164 15.32592773 C19.05997204 17.06519168 19.0668043 18.80445136 19.07543945 20.54370117 C19.08751792 23.03825937 19.09323108 25.53276173 19.09765625 28.02734375 C19.10281754 28.80963852 19.10797882 29.59193329 19.11329651 30.39793396 C19.11349226 32.26567114 19.06199694 34.13329204 19 36 C18 37 18 37 14.18359375 37.09765625 C12.60153318 37.09098089 11.01948841 37.07901875 9.4375 37.0625 C8.63119141 37.05798828 7.82488281 37.05347656 6.99414062 37.04882812 C4.99606244 37.03700518 2.99802217 37.01906914 1 37 C1.01160156 38.21558594 1.02320313 39.43117187 1.03515625 40.68359375 C1.04453278 42.26822764 1.05363313 43.85286318 1.0625 45.4375 C1.07087891 46.23994141 1.07925781 47.04238281 1.08789062 47.86914062 C1.0965143 49.91295221 1.0522815 51.95683902 1 54 C0 55 0 55 -3.81640625 55.09765625 C-5.39847047 55.09191138 -6.98051031 55.07889593 -8.5625 55.0625 C-11.346875 55.041875 -14.13125 55.02125 -17 55 C-17 60.61 -17 66.22 -17 72 C-22.94 72 -28.88 72 -35 72 C-35 77.94 -35 83.88 -35 90 C-40.94 90 -46.88 90 -53 90 C-53 95.94 -53 101.88 -53 108 C-47.06 108 -41.12 108 -35 108 C-35 113.94 -35 119.88 -35 126 C-29.06 126 -23.12 126 -17 126 C-17 131.61 -17 137.22 -17 143 C-11.45026879 142.96042519 -11.45026879 142.96042519 -5.90063477 142.90991211 C-3.93354026 142.90276909 -1.96646379 142.94968107 0 143 C1 144 1 144 1.09765625 147.81640625 C1.09098089 149.39846682 1.07901875 150.98051159 1.0625 152.5625 C1.05798828 153.36880859 1.05347656 154.17511719 1.04882812 155.00585938 C1.03700518 157.00393756 1.01906914 159.00197783 1 161 C2.82337891 160.98259766 2.82337891 160.98259766 4.68359375 160.96484375 C6.26822764 160.95546722 7.85286318 160.94636687 9.4375 160.9375 C10.23994141 160.92912109 11.04238281 160.92074219 11.86914062 160.91210938 C13.91295221 160.9034857 15.95683902 160.9477185 18 161 C19.76072584 162.76072584 19.12834784 165.0789629 19.13894653 167.4239502 C19.13591019 168.5598761 19.13591019 168.5598761 19.1328125 169.71875 C19.13376923 170.49182495 19.13472595 171.2648999 19.13571167 172.06140137 C19.13639341 173.69897544 19.13453957 175.33655219 19.13037109 176.97412109 C19.12502271 179.48931921 19.13031626 182.00433873 19.13671875 184.51953125 C19.13605797 186.10677123 19.1347768 187.6940111 19.1328125 189.28125 C19.13483673 190.03853394 19.13686096 190.79581787 19.13894653 191.5760498 C19.11495132 196.88504868 19.11495132 196.88504868 18 198 C16.65732587 198.08631874 15.31025678 198.10706473 13.96484375 198.09765625 C13.23644287 198.09515869 12.50804199 198.09266113 11.75756836 198.09008789 C10.8269458 198.08098389 9.89632324 198.07187988 8.9375 198.0625 C4.5134375 198.0315625 4.5134375 198.0315625 0 198 C0 192.06 0 186.12 0 180 C-5.94 180 -11.88 180 -18 180 C-18 174.06 -18 168.12 -18 162 C-23.94 162 -29.88 162 -36 162 C-36 156.06 -36 150.12 -36 144 C-41.94 144 -47.88 144 -54 144 C-54 138.06 -54 132.12 -54 126 C-59.94 126 -65.88 126 -72 126 C-72 120.06 -72 114.12 -72 108 C-77.94 108 -83.88 108 -90 108 C-90 102.06 -90 96.12 -90 90 C-84.06 90 -78.12 90 -72 90 C-72 84.06 -72 78.12 -72 72 C-66.06 72 -60.12 72 -54 72 C-54 66.06 -54 60.12 -54 54 C-48.06 54 -42.12 54 -36 54 C-36 48.06 -36 42.12 -36 36 C-30.06 36 -24.12 36 -18 36 C-18 30.06 -18 24.12 -18 18 C-12.06 18 -6.12 18 0 18 C0 12.06 0 6.12 0 0 Z " fill="#FFFFFF" transform="translate(199,29)"/>
<path d="M0 0 C6.27 0 12.54 0 19 0 C19.02290896 5.10869811 19.04283601 10.21721926 19.05493164 15.32592773 C19.05997204 17.06519168 19.0668043 18.80445136 19.07543945 20.54370117 C19.08751792 23.03825937 19.09323108 25.53276173 19.09765625 28.02734375 C19.10281754 28.80963852 19.10797882 29.59193329 19.11329651 30.39793396 C19.11349226 32.26567114 19.06199694 34.13329204 19 36 C18 37 18 37 14.18359375 37.09765625 C12.60153318 37.09098089 11.01948841 37.07901875 9.4375 37.0625 C8.63119141 37.05798828 7.82488281 37.05347656 6.99414062 37.04882812 C4.99606244 37.03700518 2.99802217 37.01906914 1 37 C1.01160156 38.21558594 1.02320313 39.43117187 1.03515625 40.68359375 C1.04453278 42.26822764 1.05363313 43.85286318 1.0625 45.4375 C1.07087891 46.23994141 1.07925781 47.04238281 1.08789062 47.86914062 C1.0965143 49.91295221 1.0522815 51.95683902 1 54 C0 55 0 55 -3.81640625 55.09765625 C-5.39847047 55.09191138 -6.98051031 55.07889593 -8.5625 55.0625 C-11.346875 55.041875 -14.13125 55.02125 -17 55 C-17 60.61 -17 66.22 -17 72 C-22.94 72 -28.88 72 -35 72 C-35 77.94 -35 83.88 -35 90 C-40.94 90 -46.88 90 -53 90 C-53 95.94 -53 101.88 -53 108 C-47.06 108 -41.12 108 -35 108 C-35 113.94 -35 119.88 -35 126 C-29.06 126 -23.12 126 -17 126 C-17 131.61 -17 137.22 -17 143 C-11.45026879 142.96042519 -11.45026879 142.96042519 -5.90063477 142.90991211 C-3.93354026 142.90276909 -1.96646379 142.94968107 0 143 C1 144 1 144 1.09765625 147.81640625 C1.09098089 149.39846682 1.07901875 150.98051159 1.0625 152.5625 C1.05798828 153.36880859 1.05347656 154.17511719 1.04882812 155.00585938 C1.03700518 157.00393756 1.01906914 159.00197783 1 161 C2.82337891 160.98259766 2.82337891 160.98259766 4.68359375 160.96484375 C6.26822764 160.95546722 7.85286318 160.94636687 9.4375 160.9375 C10.23994141 160.92912109 11.04238281 160.92074219 11.86914062 160.91210938 C13.91295221 160.9034857 15.95683902 160.9477185 18 161 C19.76072584 162.76072584 19.12834784 165.0789629 19.13894653 167.4239502 C19.13591019 168.5598761 19.13591019 168.5598761 19.1328125 169.71875 C19.13376923 170.49182495 19.13472595 171.2648999 19.13571167 172.06140137 C19.13639341 173.69897544 19.13453957 175.33655219 19.13037109 176.97412109 C19.12502271 179.48931921 19.13031626 182.00433873 19.13671875 184.51953125 C19.13605797 186.10677123 19.1347768 187.6940111 19.1328125 189.28125 C19.13483673 190.03853394 19.13686096 190.79581787 19.13894653 191.5760498 C19.11495132 196.88504868 19.11495132 196.88504868 18 198 C16.65732587 198.08631874 15.31025678 198.10706473 13.96484375 198.09765625 C13.23644287 198.09515869 12.50804199 198.09266113 11.75756836 198.09008789 C10.8269458 198.08098389 9.89632324 198.07187988 8.9375 198.0625 C4.5134375 198.0315625 4.5134375 198.0315625 0 198 C0 192.06 0 186.12 0 180 C-5.94 180 -11.88 180 -18 180 C-18 174.06 -18 168.12 -18 162 C-23.94 162 -29.88 162 -36 162 C-36 156.06 -36 150.12 -36 144 C-41.94 144 -47.88 144 -54 144 C-54 138.06 -54 132.12 -54 126 C-59.94 126 -65.88 126 -72 126 C-72 120.06 -72 114.12 -72 108 C-77.94 108 -83.88 108 -90 108 C-90 102.06 -90 96.12 -90 90 C-84.06 90 -78.12 90 -72 90 C-72 84.06 -72 78.12 -72 72 C-66.06 72 -60.12 72 -54 72 C-54 66.06 -54 60.12 -54 54 C-48.06 54 -42.12 54 -36 54 C-36 48.06 -36 42.12 -36 36 C-30.06 36 -24.12 36 -18 36 C-18 30.06 -18 24.12 -18 18 C-12.06 18 -6.12 18 0 18 C0 12.06 0 6.12 0 0 Z " fill="#FFFFFF" transform="translate(128,29)"/>
</svg>
